<svg xmlns="http://www.w3.org/2000/svg" viewBox="0 0 128 28" shape-rendering="crispEdges"><rect x="8" y="0" width="8" height="4" fill="#211d19"/><rect x="40" y="0" width="8" height="4" fill="#211d19"/><rect x="72" y="0" width="8" height="4" fill="#211d19"/><rect x="104" y="0" width="8" height="4" fill="#211d19"/><rect x="4" y="4" width="4" height="4" fill="#211d19"/><rect x="8" y="4" width="8" height="4" fill="#4a8fd9"/><rect x="16" y="4" width="4" height="4" fill="#211d19"/><rect x="36" y="4" width="4" height="4" fill="#211d19"/><rect x="40" y="4" width="8" height="4" fill="#4a8fd9"/><rect x="48" y="4" width="4" height="4" fill="#211d19"/><rect x="68" y="4" width="4" height="4" fill="#211d19"/><rect x="72" y="4" width="8" height="4" fill="#4a8fd9"/><rect x="80" y="4" width="4" height="4" fill="#211d19"/><rect x="100" y="4" width="4" height="4" fill="#211d19"/><rect x="104" y="4" width="8" height="4" fill="#4a8fd9"/><rect x="112" y="4" width="4" height="4" fill="#211d19"/><rect x="0" y="8" width="4" height="4" fill="#211d19"/><rect x="4" y="8" width="4" height="4" fill="#4a8fd9"/><rect x="16" y="8" width="4" height="4" fill="#4a8fd9"/><rect x="20" y="8" width="16" height="4" fill="#211d19"/><rect x="36" y="8" width="4" height="4" fill="#4a8fd9"/><rect x="48" y="8" width="4" height="4" fill="#4a8fd9"/><rect x="52" y="8" width="16" height="4" fill="#211d19"/><rect x="68" y="8" width="4" height="4" fill="#4a8fd9"/><rect x="80" y="8" width="4" height="4" fill="#4a8fd9"/><rect x="84" y="8" width="16" height="4" fill="#211d19"/><rect x="100" y="8" width="4" height="4" fill="#4a8fd9"/><rect x="112" y="8" width="4" height="4" fill="#4a8fd9"/><rect x="116" y="8" width="12" height="4" fill="#211d19"/><rect x="16" y="16" width="8" height="4" fill="#211d19"/><rect x="48" y="16" width="8" height="4" fill="#211d19"/><rect x="80" y="16" width="8" height="4" fill="#211d19"/><rect x="112" y="16" width="8" height="4" fill="#211d19"/><rect x="12" y="20" width="4" height="4" fill="#211d19"/><rect x="16" y="20" width="8" height="4" fill="#8fc3f0"/><rect x="24" y="20" width="4" height="4" fill="#211d19"/><rect x="44" y="20" width="4" height="4" fill="#211d19"/><rect x="48" y="20" width="8" height="4" fill="#8fc3f0"/><rect x="56" y="20" width="4" height="4" fill="#211d19"/><rect x="76" y="20" width="4" height="4" fill="#211d19"/><rect x="80" y="20" width="8" height="4" fill="#8fc3f0"/><rect x="88" y="20" width="4" height="4" fill="#211d19"/><rect x="108" y="20" width="4" height="4" fill="#211d19"/><rect x="112" y="20" width="8" height="4" fill="#8fc3f0"/><rect x="120" y="20" width="4" height="4" fill="#211d19"/><rect x="0" y="24" width="12" height="4" fill="#211d19"/><rect x="12" y="24" width="4" height="4" fill="#8fc3f0"/><rect x="24" y="24" width="4" height="4" fill="#8fc3f0"/><rect x="28" y="24" width="16" height="4" fill="#211d19"/><rect x="44" y="24" width="4" height="4" fill="#8fc3f0"/><rect x="56" y="24" width="4" height="4" fill="#8fc3f0"/><rect x="60" y="24" width="16" height="4" fill="#211d19"/><rect x="76" y="24" width="4" height="4" fill="#8fc3f0"/><rect x="88" y="24" width="4" height="4" fill="#8fc3f0"/><rect x="92" y="24" width="16" height="4" fill="#211d19"/><rect x="108" y="24" width="4" height="4" fill="#8fc3f0"/><rect x="120" y="24" width="4" height="4" fill="#8fc3f0"/><rect x="124" y="24" width="4" height="4" fill="#211d19"/></svg>