<svg xmlns="http://www.w3.org/2000/svg" viewBox="0 0 64 64" shape-rendering="crispEdges"><rect x="20" y="4" width="8" height="4" fill="#211d19"/><rect x="20" y="8" width="4" height="4" fill="#211d19"/><rect x="24" y="8" width="16" height="4" fill="#e05252"/><rect x="40" y="8" width="4" height="4" fill="#211d19"/><rect x="20" y="12" width="4" height="4" fill="#211d19"/><rect x="24" y="12" width="16" height="4" fill="#e05252"/><rect x="40" y="12" width="4" height="4" fill="#211d19"/><rect x="20" y="16" width="8" height="4" fill="#211d19"/><rect x="20" y="20" width="8" height="4" fill="#211d19"/><rect x="16" y="24" width="4" height="4" fill="#211d19"/><rect x="20" y="24" width="8" height="4" fill="#f6f1e3"/><rect x="28" y="24" width="4" height="4" fill="#211d19"/><rect x="16" y="28" width="4" height="4" fill="#211d19"/><rect x="20" y="28" width="12" height="4" fill="#f6f1e3"/><rect x="32" y="28" width="4" height="4" fill="#211d19"/><rect x="12" y="32" width="4" height="4" fill="#211d19"/><rect x="16" y="32" width="20" height="4" fill="#f6f1e3"/><rect x="36" y="32" width="4" height="4" fill="#211d19"/><rect x="12" y="36" width="4" height="4" fill="#211d19"/><rect x="16" y="36" width="4" height="4" fill="#5d564c"/><rect x="20" y="36" width="12" height="4" fill="#f6f1e3"/><rect x="32" y="36" width="8" height="4" fill="#5d564c"/><rect x="40" y="36" width="4" height="4" fill="#211d19"/><rect x="8" y="40" width="4" height="4" fill="#211d19"/><rect x="12" y="40" width="8" height="4" fill="#5d564c"/><rect x="20" y="40" width="8" height="4" fill="#f6f1e3"/><rect x="28" y="40" width="16" height="4" fill="#5d564c"/><rect x="44" y="40" width="4" height="4" fill="#211d19"/><rect x="8" y="44" width="4" height="4" fill="#211d19"/><rect x="12" y="44" width="32" height="4" fill="#5d564c"/><rect x="44" y="44" width="4" height="4" fill="#211d19"/><rect x="4" y="48" width="4" height="4" fill="#211d19"/><rect x="8" y="48" width="40" height="4" fill="#5d564c"/><rect x="48" y="48" width="4" height="4" fill="#211d19"/><rect x="4" y="52" width="48" height="4" fill="#211d19"/></svg>