<svg xmlns="http://www.w3.org/2000/svg" viewBox="0 0 64 64" shape-rendering="crispEdges"><rect x="20" y="4" width="24" height="4" fill="#211d19"/><rect x="12" y="8" width="8" height="4" fill="#211d19"/><rect x="20" y="8" width="24" height="4" fill="#4a8fd9"/><rect x="44" y="8" width="8" height="4" fill="#211d19"/><rect x="8" y="12" width="4" height="4" fill="#211d19"/><rect x="12" y="12" width="12" height="4" fill="#4a8fd9"/><rect x="24" y="12" width="8" height="4" fill="#4caf7d"/><rect x="32" y="12" width="20" height="4" fill="#4a8fd9"/><rect x="52" y="12" width="4" height="4" fill="#211d19"/><rect x="4" y="16" width="4" height="4" fill="#211d19"/><rect x="8" y="16" width="8" height="4" fill="#4a8fd9"/><rect x="16" y="16" width="20" height="4" fill="#4caf7d"/><rect x="36" y="16" width="20" height="4" fill="#4a8fd9"/><rect x="56" y="16" width="4" height="4" fill="#211d19"/><rect x="4" y="20" width="4" height="4" fill="#211d19"/><rect x="8" y="20" width="4" height="4" fill="#4a8fd9"/><rect x="12" y="20" width="12" height="4" fill="#4caf7d"/><rect x="24" y="20" width="20" height="4" fill="#4a8fd9"/><rect x="44" y="20" width="8" height="4" fill="#4caf7d"/><rect x="52" y="20" width="4" height="4" fill="#4a8fd9"/><rect x="56" y="20" width="4" height="4" fill="#211d19"/><rect x="4" y="24" width="4" height="4" fill="#211d19"/><rect x="8" y="24" width="8" height="4" fill="#4a8fd9"/><rect x="16" y="24" width="4" height="4" fill="#4caf7d"/><rect x="20" y="24" width="20" height="4" fill="#4a8fd9"/><rect x="40" y="24" width="12" height="4" fill="#4caf7d"/><rect x="52" y="24" width="4" height="4" fill="#4a8fd9"/><rect x="56" y="24" width="4" height="4" fill="#211d19"/><rect x="4" y="28" width="4" height="4" fill="#211d19"/><rect x="8" y="28" width="28" height="4" fill="#4a8fd9"/><rect x="36" y="28" width="16" height="4" fill="#4caf7d"/><rect x="52" y="28" width="4" height="4" fill="#4a8fd9"/><rect x="56" y="28" width="4" height="4" fill="#211d19"/><rect x="4" y="32" width="4" height="4" fill="#211d19"/><rect x="8" y="32" width="32" height="4" fill="#4a8fd9"/><rect x="40" y="32" width="8" height="4" fill="#4caf7d"/><rect x="48" y="32" width="8" height="4" fill="#4a8fd9"/><rect x="56" y="32" width="4" height="4" fill="#211d19"/><rect x="4" y="36" width="4" height="4" fill="#211d19"/><rect x="8" y="36" width="4" height="4" fill="#4a8fd9"/><rect x="12" y="36" width="8" height="4" fill="#4caf7d"/><rect x="20" y="36" width="36" height="4" fill="#4a8fd9"/><rect x="56" y="36" width="4" height="4" fill="#211d19"/><rect x="8" y="40" width="4" height="4" fill="#211d19"/><rect x="12" y="40" width="4" height="4" fill="#4a8fd9"/><rect x="16" y="40" width="12" height="4" fill="#4caf7d"/><rect x="28" y="40" width="24" height="4" fill="#4a8fd9"/><rect x="52" y="40" width="4" height="4" fill="#211d19"/><rect x="12" y="44" width="8" height="4" fill="#211d19"/><rect x="20" y="44" width="24" height="4" fill="#4a8fd9"/><rect x="44" y="44" width="8" height="4" fill="#211d19"/><rect x="20" y="48" width="24" height="4" fill="#211d19"/></svg>