<svg xmlns="http://www.w3.org/2000/svg" viewBox="0 0 64 64" shape-rendering="crispEdges"><rect x="40" y="4" width="4" height="4" fill="#211d19"/><rect x="16" y="12" width="32" height="4" fill="#211d19"/><rect x="12" y="16" width="4" height="4" fill="#211d19"/><rect x="16" y="16" width="16" height="4" fill="#f6f1e3"/><rect x="32" y="16" width="16" height="4" fill="#e88bb5"/><rect x="48" y="16" width="4" height="4" fill="#211d19"/><rect x="8" y="20" width="4" height="4" fill="#211d19"/><rect x="12" y="20" width="4" height="4" fill="#f6f1e3"/><rect x="16" y="20" width="4" height="4" fill="#ffffff"/><rect x="20" y="20" width="12" height="4" fill="#f6f1e3"/><rect x="32" y="20" width="20" height="4" fill="#e88bb5"/><rect x="52" y="20" width="4" height="4" fill="#211d19"/><rect x="8" y="24" width="4" height="4" fill="#211d19"/><rect x="12" y="24" width="4" height="4" fill="#f6f1e3"/><rect x="16" y="24" width="4" height="4" fill="#ffffff"/><rect x="20" y="24" width="12" height="4" fill="#f6f1e3"/><rect x="32" y="24" width="20" height="4" fill="#e88bb5"/><rect x="52" y="24" width="4" height="4" fill="#211d19"/><rect x="8" y="28" width="4" height="4" fill="#211d19"/><rect x="12" y="28" width="20" height="4" fill="#f6f1e3"/><rect x="32" y="28" width="20" height="4" fill="#e88bb5"/><rect x="52" y="28" width="4" height="4" fill="#211d19"/><rect x="8" y="32" width="4" height="4" fill="#211d19"/><rect x="12" y="32" width="20" height="4" fill="#f6f1e3"/><rect x="32" y="32" width="20" height="4" fill="#e88bb5"/><rect x="52" y="32" width="4" height="4" fill="#211d19"/><rect x="12" y="36" width="4" height="4" fill="#211d19"/><rect x="16" y="36" width="16" height="4" fill="#f6f1e3"/><rect x="32" y="36" width="16" height="4" fill="#e88bb5"/><rect x="48" y="36" width="4" height="4" fill="#211d19"/><rect x="16" y="40" width="32" height="4" fill="#211d19"/><rect x="20" y="44" width="4" height="4" fill="#211d19"/><rect x="52" y="48" width="4" height="4" fill="#211d19"/><rect x="8" y="52" width="4" height="4" fill="#211d19"/></svg>