<svg xmlns="http://www.w3.org/2000/svg" viewBox="0 0 64 64" shape-rendering="crispEdges"><rect x="4" y="4" width="56" height="4" fill="#211d19"/><rect x="4" y="8" width="4" height="4" fill="#211d19"/><rect x="8" y="8" width="48" height="4" fill="#ff6b35"/><rect x="56" y="8" width="4" height="4" fill="#211d19"/><rect x="4" y="12" width="4" height="4" fill="#211d19"/><rect x="8" y="12" width="4" height="4" fill="#ff6b35"/><rect x="12" y="12" width="40" height="4" fill="#f6f1e3"/><rect x="52" y="12" width="4" height="4" fill="#ff6b35"/><rect x="56" y="12" width="4" height="4" fill="#211d19"/><rect x="4" y="16" width="4" height="4" fill="#211d19"/><rect x="8" y="16" width="4" height="4" fill="#ff6b35"/><rect x="12" y="16" width="4" height="4" fill="#f6f1e3"/><rect x="16" y="16" width="32" height="4" fill="#ffb347"/><rect x="48" y="16" width="4" height="4" fill="#f6f1e3"/><rect x="52" y="16" width="4" height="4" fill="#ff6b35"/><rect x="56" y="16" width="4" height="4" fill="#211d19"/><rect x="4" y="20" width="4" height="4" fill="#211d19"/><rect x="8" y="20" width="4" height="4" fill="#ff6b35"/><rect x="12" y="20" width="40" height="4" fill="#f6f1e3"/><rect x="52" y="20" width="4" height="4" fill="#ff6b35"/><rect x="56" y="20" width="4" height="4" fill="#211d19"/><rect x="4" y="24" width="4" height="4" fill="#211d19"/><rect x="8" y="24" width="48" height="4" fill="#ff6b35"/><rect x="56" y="24" width="4" height="4" fill="#211d19"/><rect x="4" y="28" width="4" height="4" fill="#211d19"/><rect x="8" y="28" width="4" height="4" fill="#ff6b35"/><rect x="12" y="28" width="40" height="4" fill="#211d19"/><rect x="52" y="28" width="4" height="4" fill="#ff6b35"/><rect x="56" y="28" width="4" height="4" fill="#211d19"/><rect x="4" y="32" width="4" height="4" fill="#211d19"/><rect x="8" y="32" width="4" height="4" fill="#ff6b35"/><rect x="12" y="32" width="4" height="4" fill="#211d19"/><rect x="16" y="32" width="4" height="4" fill="#f6f1e3"/><rect x="20" y="32" width="8" height="4" fill="#211d19"/><rect x="28" y="32" width="8" height="4" fill="#5d564c"/><rect x="36" y="32" width="8" height="4" fill="#211d19"/><rect x="44" y="32" width="4" height="4" fill="#f6f1e3"/><rect x="48" y="32" width="4" height="4" fill="#211d19"/><rect x="52" y="32" width="4" height="4" fill="#ff6b35"/><rect x="56" y="32" width="4" height="4" fill="#211d19"/><rect x="4" y="36" width="4" height="4" fill="#211d19"/><rect x="8" y="36" width="4" height="4" fill="#ff6b35"/><rect x="12" y="36" width="4" height="4" fill="#211d19"/><rect x="16" y="36" width="4" height="4" fill="#f6f1e3"/><rect x="20" y="36" width="8" height="4" fill="#211d19"/><rect x="28" y="36" width="8" height="4" fill="#5d564c"/><rect x="36" y="36" width="8" height="4" fill="#211d19"/><rect x="44" y="36" width="4" height="4" fill="#f6f1e3"/><rect x="48" y="36" width="4" height="4" fill="#211d19"/><rect x="52" y="36" width="4" height="4" fill="#ff6b35"/><rect x="56" y="36" width="4" height="4" fill="#211d19"/><rect x="4" y="40" width="4" height="4" fill="#211d19"/><rect x="8" y="40" width="4" height="4" fill="#ff6b35"/><rect x="12" y="40" width="40" height="4" fill="#211d19"/><rect x="52" y="40" width="4" height="4" fill="#ff6b35"/><rect x="56" y="40" width="4" height="4" fill="#211d19"/><rect x="4" y="44" width="4" height="4" fill="#211d19"/><rect x="8" y="44" width="48" height="4" fill="#ff6b35"/><rect x="56" y="44" width="4" height="4" fill="#211d19"/><rect x="4" y="48" width="4" height="4" fill="#211d19"/><rect x="8" y="48" width="4" height="4" fill="#ff6b35"/><rect x="12" y="48" width="4" height="4" fill="#211d19"/><rect x="16" y="48" width="32" height="4" fill="#ff6b35"/><rect x="48" y="48" width="4" height="4" fill="#211d19"/><rect x="52" y="48" width="4" height="4" fill="#ff6b35"/><rect x="56" y="48" width="4" height="4" fill="#211d19"/><rect x="4" y="52" width="56" height="4" fill="#211d19"/></svg>