<svg xmlns="http://www.w3.org/2000/svg" viewBox="0 0 64 64" shape-rendering="crispEdges"><rect x="20" y="8" width="24" height="4" fill="#211d19"/><rect x="12" y="12" width="8" height="4" fill="#211d19"/><rect x="20" y="12" width="24" height="4" fill="#9b7ede"/><rect x="44" y="12" width="8" height="4" fill="#211d19"/><rect x="8" y="16" width="4" height="4" fill="#211d19"/><rect x="12" y="16" width="8" height="4" fill="#9b7ede"/><rect x="20" y="16" width="8" height="4" fill="#ffffff"/><rect x="28" y="16" width="24" height="4" fill="#9b7ede"/><rect x="52" y="16" width="4" height="4" fill="#211d19"/><rect x="8" y="20" width="4" height="4" fill="#211d19"/><rect x="12" y="20" width="4" height="4" fill="#9b7ede"/><rect x="16" y="20" width="8" height="4" fill="#ffffff"/><rect x="24" y="20" width="28" height="4" fill="#9b7ede"/><rect x="52" y="20" width="4" height="4" fill="#211d19"/><rect x="4" y="24" width="4" height="4" fill="#211d19"/><rect x="8" y="24" width="8" height="4" fill="#9b7ede"/><rect x="16" y="24" width="4" height="4" fill="#ffffff"/><rect x="20" y="24" width="36" height="4" fill="#9b7ede"/><rect x="56" y="24" width="4" height="4" fill="#211d19"/><rect x="4" y="28" width="4" height="4" fill="#211d19"/><rect x="8" y="28" width="48" height="4" fill="#9b7ede"/><rect x="56" y="28" width="4" height="4" fill="#211d19"/><rect x="4" y="32" width="4" height="4" fill="#211d19"/><rect x="8" y="32" width="48" height="4" fill="#9b7ede"/><rect x="56" y="32" width="4" height="4" fill="#211d19"/><rect x="8" y="36" width="4" height="4" fill="#211d19"/><rect x="12" y="36" width="40" height="4" fill="#9b7ede"/><rect x="52" y="36" width="4" height="4" fill="#211d19"/><rect x="12" y="40" width="8" height="4" fill="#211d19"/><rect x="20" y="40" width="24" height="4" fill="#9b7ede"/><rect x="44" y="40" width="8" height="4" fill="#211d19"/><rect x="20" y="44" width="24" height="4" fill="#211d19"/><rect x="16" y="48" width="4" height="4" fill="#211d19"/><rect x="20" y="48" width="24" height="4" fill="#ffb347"/><rect x="44" y="48" width="4" height="4" fill="#211d19"/><rect x="12" y="52" width="4" height="4" fill="#211d19"/><rect x="16" y="52" width="32" height="4" fill="#ffb347"/><rect x="48" y="52" width="4" height="4" fill="#211d19"/><rect x="12" y="56" width="40" height="4" fill="#211d19"/></svg>
