<svg xmlns="http://www.w3.org/2000/svg" viewBox="0 0 64 64" shape-rendering="crispEdges"><rect x="16" y="4" width="32" height="4" fill="#211d19"/><rect x="12" y="8" width="4" height="4" fill="#211d19"/><rect x="16" y="8" width="32" height="4" fill="#ffb347"/><rect x="48" y="8" width="4" height="4" fill="#211d19"/><rect x="8" y="12" width="4" height="4" fill="#211d19"/><rect x="12" y="12" width="40" height="4" fill="#ffb347"/><rect x="52" y="12" width="4" height="4" fill="#211d19"/><rect x="4" y="16" width="4" height="4" fill="#211d19"/><rect x="8" y="16" width="8" height="4" fill="#ffb347"/><rect x="16" y="16" width="8" height="4" fill="#211d19"/><rect x="24" y="16" width="16" height="4" fill="#ffb347"/><rect x="40" y="16" width="8" height="4" fill="#211d19"/><rect x="48" y="16" width="8" height="4" fill="#ffb347"/><rect x="56" y="16" width="4" height="4" fill="#211d19"/><rect x="4" y="20" width="4" height="4" fill="#211d19"/><rect x="8" y="20" width="8" height="4" fill="#ffb347"/><rect x="16" y="20" width="8" height="4" fill="#211d19"/><rect x="24" y="20" width="16" height="4" fill="#ffb347"/><rect x="40" y="20" width="8" height="4" fill="#211d19"/><rect x="48" y="20" width="8" height="4" fill="#ffb347"/><rect x="56" y="20" width="4" height="4" fill="#211d19"/><rect x="4" y="24" width="4" height="4" fill="#211d19"/><rect x="8" y="24" width="48" height="4" fill="#ffb347"/><rect x="56" y="24" width="4" height="4" fill="#211d19"/><rect x="4" y="28" width="4" height="4" fill="#211d19"/><rect x="8" y="28" width="8" height="4" fill="#e88bb5"/><rect x="16" y="28" width="32" height="4" fill="#ffb347"/><rect x="48" y="28" width="8" height="4" fill="#e88bb5"/><rect x="56" y="28" width="4" height="4" fill="#211d19"/><rect x="4" y="32" width="4" height="4" fill="#211d19"/><rect x="8" y="32" width="8" height="4" fill="#e88bb5"/><rect x="16" y="32" width="4" height="4" fill="#ffb347"/><rect x="20" y="32" width="4" height="4" fill="#211d19"/><rect x="24" y="32" width="16" height="4" fill="#ffb347"/><rect x="40" y="32" width="4" height="4" fill="#211d19"/><rect x="44" y="32" width="4" height="4" fill="#ffb347"/><rect x="48" y="32" width="8" height="4" fill="#e88bb5"/><rect x="56" y="32" width="4" height="4" fill="#211d19"/><rect x="8" y="36" width="4" height="4" fill="#211d19"/><rect x="12" y="36" width="8" height="4" fill="#ffb347"/><rect x="20" y="36" width="24" height="4" fill="#211d19"/><rect x="44" y="36" width="8" height="4" fill="#ffb347"/><rect x="52" y="36" width="4" height="4" fill="#211d19"/><rect x="8" y="40" width="4" height="4" fill="#211d19"/><rect x="12" y="40" width="36" height="4" fill="#ffb347"/><rect x="48" y="40" width="4" height="4" fill="#211d19"/><rect x="12" y="44" width="4" height="4" fill="#211d19"/><rect x="16" y="44" width="28" height="4" fill="#ffb347"/><rect x="44" y="44" width="4" height="4" fill="#211d19"/><rect x="16" y="48" width="32" height="4" fill="#211d19"/></svg>