<svg xmlns="http://www.w3.org/2000/svg" viewBox="0 0 64 64" shape-rendering="crispEdges"><rect x="28" y="4" width="8" height="4" fill="#211d19"/><rect x="8" y="8" width="4" height="4" fill="#211d19"/><rect x="24" y="8" width="4" height="4" fill="#211d19"/><rect x="28" y="8" width="8" height="4" fill="#ffb347"/><rect x="36" y="8" width="4" height="4" fill="#211d19"/><rect x="52" y="8" width="4" height="4" fill="#211d19"/><rect x="8" y="12" width="8" height="4" fill="#211d19"/><rect x="24" y="12" width="4" height="4" fill="#211d19"/><rect x="28" y="12" width="8" height="4" fill="#ffb347"/><rect x="36" y="12" width="4" height="4" fill="#211d19"/><rect x="48" y="12" width="8" height="4" fill="#211d19"/><rect x="12" y="16" width="12" height="4" fill="#211d19"/><rect x="24" y="16" width="16" height="4" fill="#ffb347"/><rect x="40" y="16" width="12" height="4" fill="#211d19"/><rect x="12" y="20" width="4" height="4" fill="#211d19"/><rect x="16" y="20" width="32" height="4" fill="#ffb347"/><rect x="48" y="20" width="4" height="4" fill="#211d19"/><rect x="4" y="24" width="12" height="4" fill="#211d19"/><rect x="16" y="24" width="8" height="4" fill="#ffb347"/><rect x="24" y="24" width="16" height="4" fill="#ff6b35"/><rect x="40" y="24" width="8" height="4" fill="#ffb347"/><rect x="48" y="24" width="12" height="4" fill="#211d19"/><rect x="4" y="28" width="4" height="4" fill="#211d19"/><rect x="8" y="28" width="12" height="4" fill="#ffb347"/><rect x="20" y="28" width="24" height="4" fill="#ff6b35"/><rect x="44" y="28" width="12" height="4" fill="#ffb347"/><rect x="56" y="28" width="4" height="4" fill="#211d19"/><rect x="4" y="32" width="4" height="4" fill="#211d19"/><rect x="8" y="32" width="12" height="4" fill="#ffb347"/><rect x="20" y="32" width="24" height="4" fill="#ff6b35"/><rect x="44" y="32" width="12" height="4" fill="#ffb347"/><rect x="56" y="32" width="4" height="4" fill="#211d19"/><rect x="4" y="36" width="12" height="4" fill="#211d19"/><rect x="16" y="36" width="8" height="4" fill="#ffb347"/><rect x="24" y="36" width="16" height="4" fill="#ff6b35"/><rect x="40" y="36" width="8" height="4" fill="#ffb347"/><rect x="48" y="36" width="12" height="4" fill="#211d19"/><rect x="12" y="40" width="4" height="4" fill="#211d19"/><rect x="16" y="40" width="32" height="4" fill="#ffb347"/><rect x="48" y="40" width="4" height="4" fill="#211d19"/><rect x="12" y="44" width="12" height="4" fill="#211d19"/><rect x="24" y="44" width="16" height="4" fill="#ffb347"/><rect x="40" y="44" width="12" height="4" fill="#211d19"/><rect x="8" y="48" width="8" height="4" fill="#211d19"/><rect x="24" y="48" width="4" height="4" fill="#211d19"/><rect x="28" y="48" width="8" height="4" fill="#ffb347"/><rect x="36" y="48" width="4" height="4" fill="#211d19"/><rect x="48" y="48" width="8" height="4" fill="#211d19"/><rect x="8" y="52" width="4" height="4" fill="#211d19"/><rect x="24" y="52" width="4" height="4" fill="#211d19"/><rect x="28" y="52" width="8" height="4" fill="#ffb347"/><rect x="36" y="52" width="4" height="4" fill="#211d19"/><rect x="52" y="52" width="4" height="4" fill="#211d19"/><rect x="28" y="56" width="8" height="4" fill="#211d19"/></svg>