<svg xmlns="http://www.w3.org/2000/svg" viewBox="0 0 64 64" shape-rendering="crispEdges"><rect x="40" y="8" width="12" height="4" fill="#211d19"/><rect x="40" y="12" width="4" height="4" fill="#211d19"/><rect x="44" y="12" width="4" height="4" fill="#9b7ede"/><rect x="48" y="12" width="4" height="4" fill="#211d19"/><rect x="40" y="16" width="4" height="4" fill="#211d19"/><rect x="44" y="16" width="4" height="4" fill="#9b7ede"/><rect x="48" y="16" width="4" height="4" fill="#211d19"/><rect x="24" y="20" width="12" height="4" fill="#211d19"/><rect x="40" y="20" width="4" height="4" fill="#211d19"/><rect x="44" y="20" width="4" height="4" fill="#9b7ede"/><rect x="48" y="20" width="4" height="4" fill="#211d19"/><rect x="24" y="24" width="4" height="4" fill="#211d19"/><rect x="28" y="24" width="4" height="4" fill="#4a8fd9"/><rect x="32" y="24" width="4" height="4" fill="#211d19"/><rect x="40" y="24" width="4" height="4" fill="#211d19"/><rect x="44" y="24" width="4" height="4" fill="#9b7ede"/><rect x="48" y="24" width="4" height="4" fill="#211d19"/><rect x="24" y="28" width="4" height="4" fill="#211d19"/><rect x="28" y="28" width="4" height="4" fill="#4a8fd9"/><rect x="32" y="28" width="4" height="4" fill="#211d19"/><rect x="40" y="28" width="4" height="4" fill="#211d19"/><rect x="44" y="28" width="4" height="4" fill="#9b7ede"/><rect x="48" y="28" width="4" height="4" fill="#211d19"/><rect x="8" y="32" width="12" height="4" fill="#211d19"/><rect x="24" y="32" width="4" height="4" fill="#211d19"/><rect x="28" y="32" width="4" height="4" fill="#4a8fd9"/><rect x="32" y="32" width="4" height="4" fill="#211d19"/><rect x="40" y="32" width="4" height="4" fill="#211d19"/><rect x="44" y="32" width="4" height="4" fill="#9b7ede"/><rect x="48" y="32" width="4" height="4" fill="#211d19"/><rect x="8" y="36" width="4" height="4" fill="#211d19"/><rect x="12" y="36" width="4" height="4" fill="#ff6b35"/><rect x="16" y="36" width="4" height="4" fill="#211d19"/><rect x="24" y="36" width="4" height="4" fill="#211d19"/><rect x="28" y="36" width="4" height="4" fill="#4a8fd9"/><rect x="32" y="36" width="4" height="4" fill="#211d19"/><rect x="40" y="36" width="4" height="4" fill="#211d19"/><rect x="44" y="36" width="4" height="4" fill="#9b7ede"/><rect x="48" y="36" width="4" height="4" fill="#211d19"/><rect x="8" y="40" width="4" height="4" fill="#211d19"/><rect x="12" y="40" width="4" height="4" fill="#ff6b35"/><rect x="16" y="40" width="4" height="4" fill="#211d19"/><rect x="24" y="40" width="4" height="4" fill="#211d19"/><rect x="28" y="40" width="4" height="4" fill="#4a8fd9"/><rect x="32" y="40" width="4" height="4" fill="#211d19"/><rect x="40" y="40" width="4" height="4" fill="#211d19"/><rect x="44" y="40" width="4" height="4" fill="#9b7ede"/><rect x="48" y="40" width="4" height="4" fill="#211d19"/><rect x="8" y="44" width="4" height="4" fill="#211d19"/><rect x="12" y="44" width="4" height="4" fill="#ff6b35"/><rect x="16" y="44" width="4" height="4" fill="#211d19"/><rect x="24" y="44" width="4" height="4" fill="#211d19"/><rect x="28" y="44" width="4" height="4" fill="#4a8fd9"/><rect x="32" y="44" width="4" height="4" fill="#211d19"/><rect x="40" y="44" width="4" height="4" fill="#211d19"/><rect x="44" y="44" width="4" height="4" fill="#9b7ede"/><rect x="48" y="44" width="4" height="4" fill="#211d19"/><rect x="4" y="48" width="52" height="4" fill="#211d19"/></svg>